<?xml version="1.0" encoding="UTF-8"?>
<!DOCTYPE svg PUBLIC "-//W3C//DTD SVG 1.1//EN" "http://www.w3.org/Graphics/SVG/1.1/DTD/svg11.dtd">
<svg version="1.1" xmlns="http://www.w3.org/2000/svg" xmlns:xlink="http://www.w3.org/1999/xlink" x="0" y="0" width="528" height="708" viewBox="0, 0, 528, 708">
  <g id="Layer_1">
    <path d="M131.712,265.734 L174.102,258.897 C170.679,262.314 164.208,264.513 154.554,265.734 C145.029,266.835 137.328,266.835 131.712,265.734 z M469.377,163.863 C469.377,170.703 464.25,177.423 454.11,184.263 C443.85,191.1 438.228,195.009 437.127,196.11 C436.026,195.009 432.612,194.4 426.873,194.4 C436.026,192.201 444.462,188.535 452.403,183.405 C460.344,178.278 465.96,171.804 469.377,163.863 z M211.482,240.207 L250.455,241.92 C244.839,248.757 236.895,252.177 226.755,252.177 C216.495,252.177 211.482,248.145 211.482,240.207 z M443.85,145.296 L452.403,136.746 L443.85,145.296 z M342.084,574.41 L336.951,623.634 L342.084,574.41 z M185.955,542.283 L177.525,540.573 L185.955,542.283 z M82.476,540.573 C88.098,577.827 90.906,614.109 90.906,649.164 C102.267,652.461 120.714,659.301 146.124,669.444 C171.537,679.698 191.697,684.708 206.358,684.708 L206.358,547.287 C192.795,554.133 181.191,558.036 171.537,559.14 C161.886,560.355 141.849,562.557 111.309,565.98 C103.368,565.98 98.847,561.213 97.749,551.565 C96.651,541.917 91.518,538.245 82.476,540.573 z M240.312,537.156 C230.055,571.11 225.048,606.165 225.048,642.324 L225.048,662.718 C227.244,671.757 228.351,678.477 228.351,682.998 C235.185,681.903 242.517,680.193 250.455,677.988 C242.517,664.428 238.611,645.132 238.611,620.217 L238.611,588.945 C238.611,578.19 239.1,567.078 240.312,555.843 L240.312,537.156 z M323.394,640.611 C323.394,624.852 324.858,603.843 327.669,577.827 C330.474,551.808 331.941,537.156 331.941,533.73 C325.101,557.553 321.681,583.572 321.681,611.784 C321.681,625.341 322.293,634.989 323.394,640.611 z M206.358,533.73 L189.375,540.573 L206.358,533.73 z M345.501,542.283 L352.227,523.593 L345.501,542.283 z M219.909,425.142 L218.208,414.999 L219.909,431.976 L219.909,425.142 z M165.672,309.834 L163.965,328.518 C174.102,330.72 179.235,325.101 179.235,311.541 L165.672,309.834 z M228.351,299.574 C222.723,298.47 219.303,301.038 218.208,307.266 C217.113,313.497 216.006,317.157 214.785,318.261 C219.303,320.583 227.244,321.681 238.611,321.681 C245.325,321.681 252.168,320.583 258.882,318.261 L258.882,311.541 C258.882,303.603 254.976,299.574 247.038,299.574 L228.351,299.574 z M277.584,292.851 L277.584,304.704 L287.841,299.574 C284.424,297.369 281.001,295.05 277.584,292.851 z M228.351,289.434 C235.185,293.952 241.419,293.952 247.038,289.434 C244.839,289.434 241.419,288.336 236.895,286.011 C232.374,283.815 229.563,284.916 228.351,289.434 z M319.974,240.207 L308.124,238.497 L319.974,240.207 z M33.243,221.64 L26.526,265.734 L90.906,267.447 C92.124,252.666 85.902,241.92 72.336,235.2 C58.776,230.679 45.705,226.158 33.243,221.64 z M140.145,131.616 C132.198,129.417 124.014,130.515 115.581,135.036 C107.037,139.554 98.847,144.072 90.906,148.593 C88.71,156.534 86.382,164.469 84.189,172.413 L79.056,163.863 C70.014,169.605 63.297,174.975 58.776,179.985 C54.261,185.115 48.024,194.4 40.089,207.963 C46.803,213.699 55.848,217.608 67.206,219.93 C62.691,213.093 58.776,205.758 55.359,197.823 C76.857,204.66 91.518,219.318 99.459,241.92 C107.4,264.513 114.735,285.522 121.446,304.704 C128.286,324 137.328,333.531 148.689,333.531 L150.402,316.551 C151.5,313.251 154.065,307.875 157.974,300.426 C161.886,293.097 168.486,289.434 177.525,289.434 C177.525,272.457 176.67,253.764 174.957,233.49 C173.25,213.093 167.874,191.1 158.832,167.286 L140.145,131.616 z M287.841,104.496 C287.841,121.476 294.804,137.355 308.976,152.016 C323.148,166.794 335.001,178.032 344.646,185.97 C354.3,193.911 367.005,198.432 382.758,199.53 C398.646,200.628 409.395,204.66 415.017,211.38 C411.603,213.699 405.981,214.8 398.034,214.8 C388.995,214.8 382.758,215.898 379.47,218.22 C377.142,222.738 378.609,228.111 383.622,234.342 C388.752,240.573 394.125,246.435 399.747,252.177 C396.327,256.695 392.169,257.187 387.036,253.764 C381.912,250.467 377.754,250.467 374.331,253.764 C374.331,269.646 376.905,284.058 381.912,297.129 C387.036,310.077 395.226,323.391 406.59,336.948 C394.125,336.948 384.477,329.619 377.754,314.841 C370.914,300.183 365.787,287.724 362.487,277.584 C338.661,277.584 316.914,287.724 297.126,308.121 C277.335,328.518 258.393,348.309 240.312,367.485 C234.573,377.625 231.768,392.403 231.768,411.582 C231.768,420.621 232.374,429.414 233.478,437.841 C234.573,446.397 235.797,454.581 236.895,462.516 C227.862,456.9 219.303,450.672 211.482,443.829 C208.065,433.692 206.358,420.621 206.358,404.865 C206.358,392.403 208.554,383.367 213.075,377.625 C213.075,387.888 214.785,395.217 218.208,399.735 C218.208,389.595 219.909,379.947 223.341,370.911 C226.755,361.869 230.055,352.83 233.478,343.788 L192.795,333.531 C190.476,338.049 185.706,341.466 178.374,343.788 C171.048,345.987 166.164,348.309 163.965,350.508 C144.66,353.928 129.39,346.599 118.149,328.518 C107.886,304.704 100.554,288.336 96.033,279.294 C90.417,276.972 80.151,275.874 65.499,275.874 C47.418,276.972 34.341,277.584 26.526,277.584 C25.305,284.304 24.813,293.466 24.813,304.704 C24.813,324 25.911,340.854 28.233,355.641 C30.435,370.293 33.855,387.03 38.376,405.717 C42.894,424.281 48.879,445.296 56.214,468.381 C63.543,491.592 72.579,507.222 83.334,515.04 C94.083,522.981 104.589,528.114 114.735,530.31 C124.866,532.635 134.517,533.73 143.562,533.73 C151.5,533.73 160.548,532.878 170.679,531.168 C180.948,529.455 188.274,528.114 192.795,527.013 C197.316,527.013 203.181,524.694 210.633,520.176 C217.965,515.658 223.341,514.554 226.755,516.753 C222.234,525.795 219.669,537.156 219.063,550.713 C218.451,564.264 218.814,572.205 219.909,574.41 C222.234,560.847 224.19,549.243 225.903,539.715 C227.613,530.067 232.374,521.886 240.312,515.04 C251.559,511.743 258.393,512.844 260.598,518.463 L250.455,613.491 C250.455,640.611 254.976,661.494 264.021,676.278 C273.057,677.382 282.708,674.328 292.854,666.873 C303.111,659.544 310.443,654.174 314.97,650.751 C310.443,640.611 308.124,627.666 308.124,611.784 C308.124,603.843 309.219,591.387 311.538,574.41 C313.86,557.553 314.97,545.091 314.97,537.156 C301.401,534.831 290.04,533.484 281.001,532.878 C271.959,532.386 266.343,527.496 264.021,518.463 C268.536,516.264 276.723,516.753 288.696,520.176 C300.546,523.593 309.219,523.593 314.97,520.176 C296.886,520.176 283.32,518.712 274.158,515.898 C265.119,513.09 256.083,505.512 247.038,493.056 C245.94,488.535 245.325,483.408 245.325,477.786 C254.37,483.408 263.403,489.39 272.571,495.624 C281.607,501.852 295.173,504.906 313.251,504.906 C324.495,504.906 336.951,502.341 350.511,497.334 C364.2,492.201 377.142,486.216 389.607,479.493 C395.226,470.457 415.626,445.785 450.69,405.717 C485.754,365.529 505.539,331.818 510.066,304.704 C508.968,301.281 503.838,279.78 494.79,240.207 C485.754,200.628 477.819,172.413 471.093,155.436 L455.823,170.703 C451.296,174.123 445.923,177.423 439.698,180.843 C433.464,184.263 428.091,185.97 423.564,185.97 C419.049,185.97 413.922,182.553 408.3,175.836 C415.017,165.573 421.005,158.244 426.138,153.723 C431.142,149.205 436.518,146.394 442.134,145.296 L416.73,175.836 C433.707,167.892 445.557,161.421 452.403,156.288 C459.12,151.158 462.537,142.974 462.537,131.616 L403.161,102.789 C402.066,104.007 398.895,109.383 393.882,118.911 C388.752,128.562 382.758,134.547 376.047,136.746 C361.26,140.166 346.362,138.459 331.092,131.616 C315.816,124.896 303.111,115.854 292.854,104.496 C290.652,89.841 294.561,79.092 304.698,72.252 C299.082,73.47 293.46,84.222 287.841,104.496 z M202.938,68.955 C187.056,73.47 174.102,79.335 163.965,86.664 C153.702,94.113 148.083,104.007 146.982,116.346 C165.063,141.267 177.162,169.239 183.384,200.385 C189.621,231.534 192.795,267.447 192.795,308.121 L202.938,318.261 C208.554,307.023 214.785,295.05 221.625,282.714 C228.351,279.294 235.185,277.584 242.025,277.584 C248.751,277.584 254.976,279.294 260.598,282.714 C260.598,240.816 259.251,204.66 256.449,174.123 C253.509,143.589 249.36,118.911 243.621,100.344 C237.993,81.654 231.519,72.006 224.19,71.394 C216.858,70.908 209.778,70.05 202.938,68.955 z M333.654,62.112 C324.495,64.431 318.021,68.343 314.109,73.962 C310.074,79.701 306.411,88.128 303.111,99.489 C323.394,117.57 347.217,126.606 374.331,126.606 C377.754,124.287 380.565,120.987 382.758,116.346 C381.663,115.245 381.057,114.147 381.057,113.049 C376.536,114.147 372.627,115.245 369.204,116.346 C373.725,109.629 378.246,102.789 382.758,96.069 C369.204,80.19 359.673,70.296 353.931,66.387 C348.312,62.355 341.478,61.008 333.654,62.112 z M399.744,34.995 C393.03,36.093 387.897,40.002 384.474,46.845 C381.057,53.685 379.47,61.008 379.47,68.955 C390.711,80.19 408.543,91.182 432.852,101.931 C457.161,112.686 473.292,122.088 481.236,130.026 C481.236,118.665 480.987,107.31 480.378,96.069 C479.763,84.708 477.201,73.104 472.68,61.254 C468.165,49.407 461.931,42.081 454.11,39.27 C446.169,36.339 434.808,34.995 420.144,34.995 L399.744,34.995 z M277.584,26.448 C267.438,30.966 260.967,39.27 258.156,51.117 C255.225,62.967 253.878,72.252 253.878,79.092 C261.822,141.267 269.637,202.953 277.584,264.027 L284.424,258.897 L291.135,274.164 C295.662,275.262 303.603,275.874 314.97,275.874 C322.905,275.874 329.133,273.672 333.654,269.034 C334.752,261.216 333.048,256.086 328.521,253.764 C324,251.565 317.766,250.467 309.831,250.467 C298.59,250.467 291.135,248.757 287.841,245.337 C294.561,238.497 299.688,233.49 303.111,230.07 C326.814,225.546 340.989,231.165 345.501,247.047 L352.227,209.67 C347.706,200.628 340.374,196.11 330.234,196.11 C314.352,199.53 303.603,201.24 297.984,201.24 C292.362,201.24 287.841,197.823 284.424,191.1 L319.974,191.1 C305.316,169.605 293.706,152.016 285.276,138.459 C276.723,124.896 272.571,115.854 272.571,111.339 C272.571,103.398 275.013,94.971 280.146,85.809 C285.276,76.77 290.652,68.343 296.268,60.405 C305.316,51.363 318.873,46.845 336.951,46.845 C343.797,46.845 348.924,47.457 352.227,48.555 L352.227,38.415 C348.924,32.676 344.403,28.764 338.661,26.448 C333.048,24.243 326.814,23.148 319.974,23.148 C315.447,23.148 308.124,23.637 297.984,24.732 C287.841,25.956 281.001,26.448 277.584,26.448 z M277.584,16.305 C282.102,16.305 289.428,15.45 299.688,13.74 C309.831,12.03 317.16,11.178 321.681,11.178 C334.146,11.178 344.646,12.885 353.082,16.305 C361.626,19.725 368.109,27.054 372.627,38.415 C382.758,29.373 397.545,24.732 416.73,24.732 C428.091,24.732 439.083,26.202 449.838,29.01 C460.587,31.818 468.165,33.894 472.68,34.995 C494.184,67.728 504.933,104.496 504.933,145.296 C504.933,165.573 502.734,184.263 498.219,201.24 C507.252,233.973 513.483,257.553 516.906,271.596 C520.203,285.768 521.91,302.991 521.91,323.391 C512.874,349.413 495.402,377.988 469.377,409.011 C443.361,440.163 419.049,469.236 396.327,496.473 C385.083,500.994 377.142,509.421 372.627,521.886 C368.109,544.479 363.582,566.592 359.061,588.093 L362.487,640.611 C345.501,664.428 324,680.556 297.984,688.98 C271.959,697.413 241.419,701.688 206.358,701.688 C184.857,701.688 159.444,694.968 130.002,681.285 C100.554,667.728 83.091,660.402 77.349,659.301 L70.626,650.751 L70.626,619.476 C70.626,608.727 71.118,597.615 72.336,586.377 C72.336,562.557 70.875,544.233 68.064,531.168 C65.25,518.217 57.552,504.906 45.099,491.346 C34.956,463.002 26.526,433.692 19.686,403.152 C12.963,372.618 9.543,342.081 9.543,311.541 C9.543,269.646 17.484,231.165 33.243,196.11 C46.803,180.351 60.363,163.863 74.046,146.886 C92.124,128.805 111.309,119.766 131.712,119.766 C133.911,108.531 139.89,98.025 149.544,88.374 C159.075,78.843 167.625,71.763 174.957,67.242 C182.289,62.724 191.082,60.405 201.225,60.405 L223.341,60.405 C237.993,60.405 247.038,54.171 250.455,41.715 C253.878,29.373 262.92,20.823 277.584,16.305"/>
  </g>
</svg>
